<svg xmlns="http://www.w3.org/2000/svg" viewBox="0 0 100 100" width="512" height="512"><defs><linearGradient id="ga" x1="4" y1="4" x2="96" y2="96" gradientUnits="userSpaceOnUse"><stop offset="0" stop-color="#00d492"></stop><stop offset="1" stop-color="#008d61"></stop></linearGradient><mask id="ma" maskUnits="userSpaceOnUse" x="0" y="0" width="100" height="100"><path d="M33 24 H49 A13.5 13.5 0 0 1 49 51 H52 A15.5 13.5 0 0 1 52 78 H33 Z M44 32 H49 A7 7 0 0 1 49 46 H44 Z M44 56 H52 A9 9 0 0 1 52 74 H44 Z" fill="#fff" fill-rule="evenodd"></path><rect x="18" y="27.5" width="64" height="3.4" fill="#000"></rect><rect x="18" y="35.1" width="64" height="3.4" fill="#000"></rect><rect x="18" y="42.7" width="64" height="3.4" fill="#000"></rect><rect x="18" y="50.3" width="64" height="3.4" fill="#000"></rect><rect x="18" y="57.9" width="64" height="3.4" fill="#000"></rect><rect x="18" y="65.5" width="64" height="3.4" fill="#000"></rect><rect x="18" y="73.1" width="64" height="3.4" fill="#000"></rect></mask></defs><rect x="4" y="4" width="92" height="92" rx="24" fill="url(#ga)"></rect><rect width="100" height="100" fill="#fff" mask="url(#ma)"></rect></svg>